<?xml version="1.0" encoding="UTF-8"?>
<svg xmlns="http://www.w3.org/2000/svg" viewBox="0 0 96.19 81.39">
  <g id="Layer_2" data-name="Layer 2">
    <g id="Layer_1-2" data-name="Layer 1">
      <path d="M88.79,0H7.4A7.41,7.41,0,0,0,0,7.4V62.89a7.41,7.41,0,0,0,7.4,7.4H36.66l-1.23,7.4h-4a1.85,1.85,0,0,0,0,3.7H64.74a1.85,1.85,0,1,0,0-3.7h-4l-1.23-7.4H88.79a7.41,7.41,0,0,0,7.4-7.4V7.4A7.41,7.41,0,0,0,88.79,0ZM7.4,3.7H88.79a3.7,3.7,0,0,1,3.7,3.7V55.49H3.7V7.4A3.7,3.7,0,0,1,7.4,3.7ZM57,77.69H39.18l1.23-7.4H55.78Zm31.78-11.1H7.4a3.7,3.7,0,0,1-3.7-3.7v-3.7H92.49v3.7A3.7,3.7,0,0,1,88.79,66.59Z"></path>
      <path d="M44.71,35.33H72.85a1.72,1.72,0,0,0,0-3.44H44.71a1.72,1.72,0,1,0,0,3.44h0"></path>
      <path d="M72.85,41.84a1.72,1.72,0,1,0,0-3.43H44.7a1.72,1.72,0,0,0,0,3.43Z"></path>
      <path d="M72.85,48.36a1.72,1.72,0,0,0,0-3.44H44.7a1.72,1.72,0,0,0,0,3.44Z"></path>
      <path d="M29,29.13a16.41,16.41,0,0,1,14.5-13.08A16.17,16.17,0,0,1,54.9,19.37H50.48a2,2,0,0,0,0,4H61.3V12.84a2,2,0,0,0-4,0v3.34A20.25,20.25,0,0,0,25.44,26.79a19.92,19.92,0,0,0-.15,10.41,2,2,0,0,0,2.76,1.33h0a2,2,0,0,0,1.08-2.32A15.82,15.82,0,0,1,29,29.13Z"></path>
    </g>
  </g>
</svg>
