<svg width="32" height="33" viewBox="0 0 32 33" fill="none" xmlns="http://www.w3.org/2000/svg">
<path d="M0 0.228516V32.2285H32V0.228516H0ZM25.3673 11.7401C25.3746 11.9281 25.3786 12.1167 25.3786 12.3066C25.3786 19.9138 19.2114 26.0817 11.6035 26.0817C8.89535 26.0817 6.36916 25.3001 4.23948 23.9494C4.23899 23.9493 4.2385 23.9492 4.23808 23.9492L4.23948 23.9494C8.40285 24.5703 11.3356 21.921 11.3356 21.921C7.6259 21.6324 6.89291 18.5451 6.89291 18.5451C8.20365 18.767 9.02525 18.4558 9.02525 18.4558C4.84981 17.479 5.20497 13.658 5.20497 13.658C6.17185 14.2357 7.29272 14.2804 7.29272 14.2804C3.60571 11.0372 5.91598 7.88328 5.91598 7.88328C9.78156 12.5645 15.4637 12.883 15.8369 12.8984C15.7549 12.5465 15.7116 12.1801 15.7116 11.8036C15.7116 9.13545 17.8752 6.97242 20.5454 6.97242C21.9374 6.97242 23.1915 7.56014 24.0738 8.50175C24.3183 8.43315 24.5555 8.35914 24.7821 8.28386C26.1509 7.82738 27.1284 7.3056 27.1284 7.3056C26.8926 8.719 25.15 9.9051 25.0254 9.98838C25.0207 9.99168 25.0181 9.99301 25.0181 9.99301C25.0207 9.99301 25.024 9.99238 25.0267 9.99238C26.3794 9.85707 27.7615 9.2827 27.7615 9.2827C27.3444 10.1595 25.6425 11.5235 25.3673 11.7401Z" fill="white"/>
</svg>
