<svg width="32" height="33" viewBox="0 0 32 33" fill="none" xmlns="http://www.w3.org/2000/svg">
<path d="M0 0.228516V32.2285H32V0.228516H0ZM9.82615 26.6275C9.82615 27.035 9.49578 27.3654 9.08824 27.3654H5.94807C5.54053 27.3654 5.21016 27.035 5.21016 26.6275V13.2313C5.21016 12.8237 5.54053 12.4934 5.94807 12.4934H9.08824C9.49578 12.4934 9.82615 12.8237 9.82615 13.2313V26.6275ZM7.51306 10.4444C6.0871 10.4733 4.83394 9.28228 4.83422 7.763C4.83422 6.28949 6.04771 5.08738 7.53111 5.08858C8.99675 5.08977 10.2055 6.30031 10.2024 7.77325C10.1989 9.31549 8.91895 10.478 7.51306 10.4444ZM27.1658 27.0621C27.1658 27.2313 27.0286 27.3685 26.8594 27.3684L22.8463 27.3674C22.6772 27.3673 22.54 27.2302 22.54 27.061V18.789C22.54 18.074 22.2503 17.4263 21.7816 16.9578C21.3066 16.4826 20.6476 16.1913 19.9207 16.1996C18.4968 16.2156 17.361 17.398 17.361 18.822V27.0601C17.361 27.2293 17.2238 27.3664 17.0546 27.3664L13.0515 27.3654C12.8823 27.3653 12.7453 27.2282 12.7453 27.0591V12.7997C12.7453 12.6306 12.8824 12.4934 13.0516 12.4934H16.9694C17.1385 12.4934 17.2757 12.6305 17.2757 12.7997V14.4441C17.2761 14.4434 17.2915 14.4453 17.3178 14.4493C17.3935 14.3124 17.4759 14.1798 17.565 14.052C18.3814 12.8803 19.7389 12.1136 21.2754 12.1136H22.0807C24.8891 12.1136 27.1659 14.3903 27.1659 17.1987V27.0621H27.1658Z" fill="white"/>
</svg>
