<?xml version="1.0" encoding="UTF-8"?>
<svg xmlns="http://www.w3.org/2000/svg" viewBox="0 0 91.28 83.85">
  <g id="Layer_2" data-name="Layer 2">
    <g id="Layer_1-2" data-name="Layer 1">
      <path d="M84.18,55.13V16.75a8.49,8.49,0,0,0,7.1-8.31A8.5,8.5,0,0,0,82.74,0H8.53A8.49,8.49,0,0,0,0,8.44a8.49,8.49,0,0,0,7.09,8.31V55.13a5.57,5.57,0,0,0,.54,11.13H26.57L15.26,80.63H9.94a1.61,1.61,0,1,0,0,3.22H81.33A1.62,1.62,0,0,0,83,82.24h0a1.63,1.63,0,0,0-1.64-1.61H76L64.7,66.26H83.64a5.57,5.57,0,0,0,.54-11.13ZM10.35,17.21H80.92V54.69h-9V23.1a1.61,1.61,0,1,0-3.21,0V54.69H62.86V23.1a1.61,1.61,0,1,0-3.21,0V54.69H51.78V32.58a1.61,1.61,0,0,0-3.22,0V54.69H42.71V32.58A1.61,1.61,0,0,0,41.1,31h0a1.61,1.61,0,0,0-1.61,1.61V54.69H31.62V39h0a1.61,1.61,0,0,0-3.22,0V54.69H22.55V39h0a1.61,1.61,0,0,0-3.22,0V54.69h-9ZM3.25,8.44A5.26,5.26,0,0,1,8.53,3.21H82.74A5.27,5.27,0,0,1,88,8.44a5.26,5.26,0,0,1-5.29,5.22H8.53A5.26,5.26,0,0,1,3.25,8.44ZM30.66,66.26H44V80.63H19.35ZM71.92,80.63H47.24V66.26H60.61ZM83.64,63.05h-76a2.38,2.38,0,1,1,0-4.76h76a2.38,2.38,0,1,1,0,4.76Z"></path>
    </g>
  </g>
</svg>
