<?xml version="1.0" encoding="UTF-8"?>
<svg xmlns="http://www.w3.org/2000/svg" viewBox="0 0 82.15 83.7">
  <g id="Layer_2" data-name="Layer 2">
    <g id="Layer_1-2" data-name="Layer 1">
      <path d="M79.54,47.92C77,41.31,73.91,37.57,71.48,35.48V0H0V74.61H29.28a26.74,26.74,0,0,0,11,8.85,2.65,2.65,0,0,0,1.09.24,2.59,2.59,0,0,0,2-1,2.27,2.27,0,0,0,0-2.82c-2.58-3.33-4.85-8.78-1.08-15.8C46.7,56,50,50.3,51.88,47.16a45.47,45.47,0,0,0,7.61,12.31C62.57,63,69.13,72,63.35,79.81a2.28,2.28,0,0,0,0,2.79,2.65,2.65,0,0,0,3.11.75c6.6-2.81,14.67-8.68,15.57-20.68C82.34,59.66,82.11,54.67,79.54,47.92Zm-14.27-5a3.23,3.23,0,0,1-1.06-1.48c-.75-1.67-1.18-4.7-1.18-8.33a29.13,29.13,0,0,0-2.59-12h7.81V34.19a2.42,2.42,0,0,0-.72.27,2.32,2.32,0,0,0-1.23,2.22C66.6,40.79,65.69,42.64,65.27,42.93ZM37.36,3.23H68.25v14.6H58.71a29.8,29.8,0,0,0-3.39-4.48,25.32,25.32,0,0,0-4.9-4.14,2.68,2.68,0,0,0-2.82,0,2.34,2.34,0,0,0-1.16,2.21,27,27,0,0,1-.27,6.45H37.36Zm1.35,32.48H20.29V21.11H45.5A46.24,46.24,0,0,1,38.71,35.71ZM3.23,3.23H34.12v14.6H3.23Zm0,17.88H16.87v14.6H3.23Zm0,17.83H34.12v2.74c-.2.24-.4.48-.62.72a36.79,36.79,0,0,0-6.84,11.14H3.23ZM16.87,71.38H3.23V57.05H16.87Zm3.23-14.6h5.59a21.37,21.37,0,0,0,1.55,14.6H20.1ZM78.85,62.4v0c-.56,7.59-4.4,13.27-11.43,16.93,3.18-6.45,1.26-14.32-5.5-22A42.42,42.42,0,0,1,53.8,43l-1-3.46-1.92,3c0,.07-4.39,7-11.38,20-3.06,5.69-3.15,11.53-.32,16.72a23.48,23.48,0,0,1-8.8-8.89,17,17,0,0,1-2.08-8.86c.15-5.59,2.73-11.32,7.64-17,12.39-14,13.94-26.08,13.81-31.85a22.66,22.66,0,0,1,3.19,2.86A26,26,0,0,1,59.8,33.12c0,4.13.52,7.56,1.46,9.66,1.15,2.54,2.93,3.77,4.77,3.3,2.31-.58,3.59-3.51,3.56-7.95,1.89,1.7,4.62,5,6.93,10.95C78.88,55.25,79.09,59.73,78.85,62.4Z"></path>
    </g>
  </g>
</svg>
