<?xml version="1.0" encoding="UTF-8"?>
<svg xmlns="http://www.w3.org/2000/svg" viewBox="0 0 66.78 66.02">
  <g id="Layer_2" data-name="Layer 2">
    <g id="Layer_1-2" data-name="Layer 1">
      <path d="M33.75,18.17a2.52,2.52,0,1,0-3.57,3.57l12.1,12.1L66,10.09a2.53,2.53,0,0,0-3.57-3.58L42.28,26.7Z"></path>
      <path d="M62.51,18.77a1.79,1.79,0,0,0-.78,1.79,20.27,20.27,0,0,1,.32,3.51A20.47,20.47,0,1,1,41.59,3.6,20.24,20.24,0,0,1,53.75,7.65a1.79,1.79,0,0,0,2.66-.56l0-.07a1.8,1.8,0,0,0-.52-2.26A23.94,23.94,0,0,0,42,0,24.25,24.25,0,0,0,17.52,23.89a23.94,23.94,0,0,0,3.65,12.9L1.78,56.17A5.84,5.84,0,0,0,1.24,64a5.66,5.66,0,0,0,8.39.41L29.26,44.73a24.06,24.06,0,0,0,36-24.81,1.79,1.79,0,0,0-2.75-1.17ZM7.36,61.53a2.06,2.06,0,0,1-2.92-2.92L23.33,39.72a23.77,23.77,0,0,0,3,2.9Z"></path>
    </g>
  </g>
</svg>
