<?xml version="1.0" encoding="UTF-8"?>
<svg xmlns="http://www.w3.org/2000/svg" width="260" height="65" viewBox="0 0 260 65" fill="none">
  <path d="M158.437 24.4619H150.408L150.421 39.5254C150.421 43.9273 148.539 47.4884 144.149 47.4884C139.757 47.4884 137.858 43.9273 137.858 39.5254V24.4761H129.85L129.848 39.5254C129.848 48.2241 135.424 55.2741 144.1 55.2741C152.774 55.2741 158.434 48.2241 158.434 39.5254L158.437 24.4619Z" fill="#009CDE"></path>
  <path d="M238.818 15.2822H230.829V54.4965H238.818V15.2822Z" fill="#009CDE"></path>
  <path d="M244.719 16.7293V15.3203H250.945V16.7293H248.668V22.9387H246.998V16.7293H244.719Z" fill="#009CDE"></path>
  <path d="M254.169 15.3213L255.946 20.5594H255.967L257.647 15.3213H260.001V22.9392H258.436V17.5402H258.415L256.553 22.9392H255.265L253.403 17.5937H253.382V22.9392H251.818V15.3213H254.169Z" fill="#009CDE"></path>
  <path d="M123.318 24.1343C116.431 22.5404 112.088 29.4011 111.906 29.7689C111.818 29.9495 111.815 30.0546 111.51 30.0469C111.258 30.0415 111.229 29.7689 111.229 29.7689L110.375 24.5208H103.217V54.4714H111.24V38.2596C111.24 36.935 114.797 30.5834 121.69 32.2178C125.176 33.0454 126.655 34.5288 126.655 34.5288V25.4042C125.607 24.8269 124.484 24.3995 123.318 24.1343Z" fill="#009CDE"></path>
  <path d="M177.099 31.7222C178.683 31.7219 180.231 32.1924 181.547 33.0743C182.864 33.9562 183.89 35.2099 184.496 36.6767C185.103 38.1435 185.261 39.7576 184.952 41.3149C184.644 42.8721 183.881 44.3026 182.761 45.4253C181.642 46.548 180.215 47.3125 178.662 47.6222C177.109 47.9319 175.5 47.7728 174.037 47.165C172.574 46.5573 171.324 45.5282 170.444 44.2079C169.565 42.8876 169.096 41.3354 169.096 39.7476C169.097 37.6193 169.94 35.5784 171.441 34.0735C172.942 32.5685 174.977 31.7228 177.099 31.7222ZM169.323 64.3352V53.5587L169.325 53.5609L169.327 49.5246C169.327 49.5246 169.339 49.2017 169.63 49.1984C169.889 49.1951 169.946 49.367 170.01 49.5246C170.618 51.043 173.963 56.8243 181.387 55.0114C184.219 54.2103 186.772 52.6327 188.759 50.4559C190.746 48.2792 192.087 45.5897 192.633 42.6901C193.179 39.7904 192.907 36.7955 191.848 34.0424C190.789 31.2892 188.985 28.887 186.638 27.1059C184.292 25.3249 181.497 24.2356 178.567 23.9606C175.637 23.6856 172.689 24.2359 170.054 25.5495C167.418 26.8631 165.201 28.888 163.651 31.3962C162.101 33.9045 161.28 36.7968 161.279 39.7476V64.3352L169.323 64.3352Z" fill="#009CDE"></path>
  <path d="M219.772 39.7474C219.773 41.3351 219.304 42.8873 218.424 44.2076C217.545 45.5278 216.295 46.557 214.832 47.1648C213.369 47.7725 211.759 47.9317 210.207 47.6221C208.654 47.3125 207.227 46.5481 206.107 45.4255C204.988 44.3029 204.225 42.8726 203.916 41.3154C203.607 39.7582 203.766 38.1441 204.372 36.6773C204.978 35.2104 206.004 33.9567 207.32 33.0747C208.637 32.1926 210.185 31.7219 211.768 31.722C213.891 31.7225 215.926 32.5681 217.427 34.073C218.928 35.578 219.772 37.619 219.772 39.7474ZM219.544 54.4836H227.588V39.7474C227.588 36.7967 226.767 33.9045 225.217 31.3963C223.667 28.8881 221.449 26.8633 218.814 25.5497C216.18 24.236 213.231 23.6857 210.301 23.9606C207.372 24.2354 204.576 25.3246 202.23 27.1055C199.884 28.8864 198.08 31.2885 197.021 34.0415C195.962 36.7945 195.69 39.7892 196.235 42.6888C196.781 45.5884 198.122 48.2778 200.109 50.4545C202.096 52.6313 204.649 54.209 207.481 55.0101C214.904 56.8241 218.249 51.0418 218.858 49.5244C218.921 49.3668 218.978 49.1949 219.238 49.1971C219.528 49.2015 219.54 49.5244 219.54 49.5244" fill="#009CDE"></path>
  <path d="M80.2668 22.0534H77.0419V47.6274L80.3541 47.7127C87.1479 47.7127 91.5235 47.0932 91.5235 34.8432C91.5235 23.0967 87.661 22.0534 80.2668 22.0534V22.0534ZM78.0888 54.4212H68.9631V15.2661H78.7548C90.6109 15.2661 99.6034 17.4479 99.6034 34.8432C99.6034 52.0719 90.0781 54.4212 78.0888 54.4212" fill="#009CDE"></path>
  <path d="M34.6837 13.7144C30.1654 9.18584 25.8545 4.86881 24.5715 0C23.2885 4.86881 18.9769 9.18584 14.4593 13.7144C7.68297 20.5052 0 28.2014 0 39.7445C-4.80841e-08 42.9803 0.635579 46.1843 1.87045 49.1738C3.10532 52.1632 4.91529 54.8795 7.19703 57.1675C9.47877 59.4556 12.1876 61.2705 15.1688 62.5088C18.1501 63.7471 21.3453 64.3844 24.5722 64.3844C27.7991 64.3844 30.9944 63.7471 33.9756 62.5088C36.9568 61.2705 39.6656 59.4556 41.9474 57.1675C44.2291 54.8795 46.0391 52.1632 47.274 49.1738C48.5088 46.1843 49.1444 42.9803 49.1444 39.7445C49.1444 28.2022 41.4621 20.5052 34.6837 13.7144ZM10.444 45.486C8.93729 45.4347 3.3768 35.824 13.6924 25.591L20.5187 33.0681C20.5773 33.1261 20.6229 33.196 20.6527 33.273C20.6824 33.35 20.6956 33.4324 20.6913 33.5149C20.687 33.5974 20.6653 33.678 20.6277 33.7515C20.5901 33.825 20.5374 33.8896 20.4731 33.9412C18.8442 35.6165 11.9013 42.5979 11.0384 45.0119C10.8603 45.5102 10.6001 45.4914 10.444 45.486ZM24.5722 58.1526C23.4624 58.1526 22.3635 57.9334 21.3382 57.5076C20.3128 57.0817 19.3812 56.4575 18.5964 55.6706C17.8117 54.8837 17.1892 53.9495 16.7645 52.9213C16.3398 51.8931 16.1212 50.7912 16.1212 49.6783C16.1524 47.6235 16.8973 45.644 18.2276 44.0808C19.7514 42.2123 24.5711 36.9571 24.5711 36.9571C24.5711 36.9571 29.317 42.2895 30.9032 44.063C32.285 45.6032 33.0414 47.6066 33.0233 49.6783C33.0233 51.9258 32.1329 54.0813 30.548 55.6705C28.9631 57.2598 26.8136 58.1526 24.5722 58.1526ZM40.7475 44.4103C40.5653 44.8098 40.1521 45.4766 39.5945 45.497C38.6004 45.5333 38.4942 45.0225 37.7595 43.9321C36.1464 41.5385 22.0692 26.7857 19.4362 23.9325C17.1202 21.423 19.1101 19.6538 20.0331 18.7266C21.1911 17.5633 24.5714 14.1758 24.5714 14.1758C24.5714 14.1758 34.6505 23.7652 38.849 30.3174C43.0476 36.8696 41.6007 42.5393 40.7475 44.4103Z" fill="#009CDE"></path>
</svg>
